<?xml version="1.0" encoding="iso-8859-1"?>
<!-- Generator: Adobe Illustrator 19.0.0, SVG Export Plug-In . SVG Version: 6.00 Build 0)  -->
<svg version="1.1" id="Layer_1" xmlns="http://www.w3.org/2000/svg" xmlns:xlink="http://www.w3.org/1999/xlink" x="0px" y="0px"
	 viewBox="0 0 511.999 511.999" style="enable-background:new 0 0 511.999 511.999;" xml:space="preserve">
<g>
	<path style="fill:rgb(178,124,0);" d="M144,75.999c-6-23-22.667-32-40-32c-39.333,0-96,102.196-96,120c0,1,21.746,15.69,24,48
		c3,43,38.5,89.5,64,48c23.046-37.505-35-145,8-184"/>
	<path style="fill:rgb(178,124,0);" d="M368,75.999c6-23,22.667-32,40-32c39.333,0,96,102.196,96,120c0,1-21.746,15.69-24,48
		c-3,43-38.5,89.5-64,48c-23.046-37.505,35-145-8-184"/>
</g>
<path style="fill:rgb(242,169,0);" d="M423.332,276.763C423.72,272.665,409,235.419,409,230.999l14.927-125.053
	C406.5,47.499,371.5,77.499,357,79.999c-29.35,5.061-36.852-10.697-100-9c-62,1.667-67.708,0.695-96,10
	c-10.436,3.433-54.5-49.5-73.072,24.947L101,241.999c0,4.352-12.872,30.536-12.495,34.577L88,276c0,64,26,101,72,136
	c11.388,8.665,23.852,43.7,70.136,53.463c5.233,1.104,7.469,1.03,11.864,1.537c6.5,0.75,7.471,1,13.985,1H256
	c6.514,0,5.75-0.75,15-1c4.423-0.119,5.631-0.433,10.864-1.537C328.148,455.7,340.612,420.665,352,412c46-35,72-72,72-136
	L423.332,276.763z"/>
<path style="fill:rgb(302,211,0);" d="M255.928,231.999L255.928,231.999c-15.082,0-29.143,7.518-37.463,20.097
	c-20.84,31.508-58.537,90.262-58.537,102.984c0,17.583,32,79.124,96,43.958c64,35.167,96-26.374,96-43.958
	c0-12.723-37.697-71.476-58.538-102.984C285.069,239.518,271.01,231.999,255.928,231.999z"/>
<path style="fill:#464655;" d="M296,336.444C296,356.082,256,372,256,372s-40-15.918-40-35.556C216,316.808,233.909,308,256,308
	S296,316.808,296,336.444z"/>
<path d="M344,372c-8.837,0-15.708,5.215-22.983,10.736C312.426,389.257,303.542,396,289.846,396c-16.081,0-25.846-7.779-25.846-11.2
	v-7.573c4.103-1.904,10.192-4.965,16.329-8.914C296.036,358.207,304,347.484,304,336.444C304,313.965,285.607,300,256,300
	s-48,13.965-48,36.444c0,11.041,7.964,21.763,23.671,31.869c6.136,3.949,12.226,7.01,16.329,8.914v7.573
	c0,3.42-9.765,11.2-25.846,11.2c-13.696,0-22.58-6.743-31.171-13.264C183.708,377.215,176.837,372,168,372c-4.418,0-8,3.582-8,8
	s3.582,8,8,8c3.453,0,8.021,3.467,13.31,7.482c9.185,6.97,21.764,16.518,40.844,16.518c13.9,0,26.232-4.432,33.846-11.232
	c7.614,6.8,19.946,11.232,33.846,11.232c19.08,0,31.659-9.548,40.844-16.518c5.289-4.015,9.857-7.482,13.31-7.482
	c4.418,0,8-3.582,8-8S348.418,372,344,372z M224,336.444C224,317.992,246.378,316,256,316c9.622,0,32,1.992,32,20.444
	c0,8.999-18.124,20.761-32,26.878C242.121,357.202,224,345.441,224,336.444z"/>
<path d="M477.344,92.792C459.542,66.883,433.062,35.999,408,35.999c-22.488,0-39.703,12.801-46.699,34.442
	c-10.939,5.138-19.202,3.016-34.479-0.945c-15.464-4.008-36.641-9.497-70.822-9.497s-55.358,5.489-70.822,9.497
	c-15.278,3.96-23.54,6.083-34.479,0.945C143.703,48.8,126.488,35.999,104,35.999c-25.062,0-51.542,30.884-69.344,56.793
	C17.989,117.05,0,151.173,0,163.999c0,3.644,2.191,5.678,3.952,7.312c4.546,4.22,18.38,17.063,20.067,41.245
	c2.057,29.486,19.082,64.944,43,70.814c1.813,0.445,4.015,0.79,6.493,0.789c2.041,0,4.268-0.233,6.615-0.836
	c0.92,29.027,7.368,53.792,19.661,75.495c11.833,20.89,29.427,39.812,55.367,59.548c2.092,1.591,5.053,5.542,8.188,9.723
	C176.78,446.009,199.267,476,256,476s79.22-29.991,92.656-47.91c3.135-4.182,6.097-8.132,8.188-9.723
	c25.94-19.737,43.533-38.659,55.367-59.548c12.293-21.702,18.741-46.468,19.661-75.495c2.348,0.603,4.575,0.836,6.615,0.836
	c2.478,0,4.681-0.344,6.493-0.789c23.918-5.87,40.943-41.329,43-70.814c1.688-24.182,15.521-37.025,20.067-41.245
	c1.761-1.634,3.952-3.668,3.952-7.312C512,151.173,494.011,117.05,477.344,92.792z M472.02,211.442
	c-1.813,25.994-16.519,52.872-30.853,56.389c-6.319,1.553-12.495-2.492-18.351-12.021c-8.44-13.735-3.108-43.257,2.048-71.805
	c7.529-41.69,16.064-88.94-11.49-113.932c-3.273-2.969-8.332-2.721-11.3,0.551c-2.968,3.273-2.722,8.332,0.551,11.3
	c20.98,19.029,13.616,59.804,6.494,99.236c-5.952,32.956-11.575,64.084,0.065,83.026c2.341,3.809,4.748,6.924,7.166,9.471
	C416.124,274.4,416,275.186,416,276c0,64.115-27.521,98.192-68.844,129.633c-3.867,2.942-7.312,7.538-11.302,12.858
	C323.461,435.021,304.732,460,256,460s-67.461-24.979-79.854-41.509c-3.989-5.32-7.435-9.916-11.301-12.858
	C123.521,374.191,96,340.115,96,276c0-0.814-0.124-1.601-0.35-2.341c2.418-2.547,4.825-5.662,7.166-9.471
	c11.64-18.942,6.017-50.071,0.065-83.026c-7.122-39.433-14.487-80.208,6.494-99.236c3.272-2.968,3.519-8.027,0.551-11.3
	c-2.968-3.273-8.028-3.519-11.3-0.551c-27.554,24.991-19.02,72.242-11.49,113.932c5.156,28.548,10.488,58.07,2.048,71.805
	c-5.855,9.529-12.029,13.573-18.351,12.021c-14.334-3.518-29.04-30.395-30.853-56.389c-1.36-19.492-9.262-36.399-23.493-50.287
	c2.36-9.029,13.237-32.931,31.356-59.303C69.292,70.636,90.285,51.999,104,51.999c9.513,0,26.353,3.38,32.259,26.02
	c0.007,0.026,0.017,0.051,0.024,0.077c0.04,0.147,0.089,0.292,0.138,0.437c0.036,0.108,0.069,0.219,0.109,0.325
	c0.048,0.126,0.106,0.249,0.161,0.373c0.052,0.118,0.1,0.238,0.157,0.352c0.053,0.106,0.115,0.208,0.173,0.311
	c0.069,0.124,0.134,0.25,0.209,0.368c0.063,0.101,0.136,0.195,0.203,0.293c0.079,0.115,0.155,0.231,0.24,0.341
	c0.082,0.106,0.173,0.205,0.26,0.307c0.081,0.093,0.157,0.19,0.242,0.28c0.095,0.101,0.199,0.194,0.299,0.291
	c0.088,0.084,0.172,0.17,0.263,0.25c0.096,0.083,0.199,0.159,0.299,0.238c0.106,0.085,0.212,0.172,0.322,0.251
	c0.093,0.065,0.191,0.125,0.287,0.187c0.128,0.083,0.255,0.167,0.388,0.243c0.023,0.014,0.045,0.03,0.069,0.043
	c8.594,4.797,16.055,6.536,23.466,6.536c8.125,0,16.191-2.091,25.625-4.536c15.444-4.005,34.666-8.987,66.807-8.987
	s51.363,4.982,66.807,8.986c9.436,2.446,17.5,4.536,25.625,4.536c7.411,0,14.873-1.74,23.466-6.536
	c0.023-0.013,0.042-0.028,0.065-0.041c0.14-0.08,0.274-0.168,0.409-0.256c0.089-0.058,0.18-0.112,0.266-0.173
	c0.121-0.086,0.235-0.18,0.351-0.272c0.091-0.072,0.185-0.141,0.271-0.216c0.104-0.09,0.2-0.188,0.298-0.284
	c0.088-0.085,0.18-0.167,0.264-0.256c0.098-0.104,0.188-0.216,0.28-0.326c0.074-0.087,0.153-0.172,0.223-0.262
	c0.095-0.122,0.179-0.251,0.267-0.379c0.059-0.085,0.122-0.168,0.177-0.256c0.081-0.127,0.151-0.261,0.224-0.394
	c0.053-0.095,0.11-0.188,0.159-0.286c0.059-0.118,0.109-0.243,0.163-0.365c0.053-0.12,0.108-0.239,0.155-0.361
	c0.041-0.106,0.074-0.217,0.11-0.327c0.048-0.145,0.098-0.288,0.137-0.435c0.007-0.026,0.018-0.051,0.024-0.077
	c5.906-22.64,22.746-26.02,32.259-26.02c13.715,0,34.708,18.637,56.156,49.854c18.119,26.372,28.996,50.273,31.356,59.303
	C481.281,175.044,473.379,191.951,472.02,211.442z"/>
<circle cx="168" cy="227.999" r="24"/>
<circle cx="344" cy="227.999" r="24"/>
<path d="M278.605,418.042c-15,2.618-30.211,2.618-45.211,0c-4.354-0.761-8.497,2.153-9.256,6.506
	c-0.76,4.352,2.153,8.496,6.505,9.255c8.413,1.469,16.885,2.203,25.356,2.203s16.944-0.734,25.356-2.203
	c4.353-0.759,7.265-4.903,6.505-9.255C287.102,420.195,282.961,417.281,278.605,418.042z"/>
</svg>
